<svg id="グループ_3" data-name="グループ 3" xmlns="http://www.w3.org/2000/svg" width="15" height="9.049" viewBox="0 0 15 9.049">
  <path id="パス_14_-_アウトライン" data-name="パス 14 - アウトライン" d="M5.57,0a.711.711,0,0,0-.727.727L4.91,4.91.727,4.844A.711.711,0,0,0,0,5.57a.767.767,0,0,0,.75.75L5.672,6.4A.711.711,0,0,0,6.4,5.672L6.32.75A.767.767,0,0,0,5.57,0Z" transform="translate(15 4.524) rotate(135)" fill="#0087CE"/>
  <path id="パス_15_-_アウトライン" data-name="パス 15 - アウトライン" d="M5.57,0a.711.711,0,0,0-.727.727L4.91,4.91.727,4.844A.711.711,0,0,0,0,5.57a.767.767,0,0,0,.75.75L5.672,6.4A.711.711,0,0,0,6.4,5.672L6.32.75A.767.767,0,0,0,5.57,0Z" transform="translate(9.049 4.524) rotate(135)" fill="#0087CE"/>
</svg>
