<svg xmlns="http://www.w3.org/2000/svg" width="53" height="48.961" viewBox="0 0 53 48.961">
  <g id="グループ_1719" data-name="グループ 1719" transform="translate(-103.442 -485.826)">
    <g id="グループ_1720" data-name="グループ 1720" transform="translate(105.442 487.826)">
      <path id="パス_898" data-name="パス 898" d="M143.937,504.429c0,9.169-7.629,16.588-19.88,16.518-2.248-.013-7.785,6.052-9.789,5.441-2.145-.653-.1-7.926-1.821-9.15a15.8,15.8,0,0,1-7-12.81c0-9.17,8.617-16.6,19.248-16.6S143.937,495.258,143.937,504.429Z" transform="translate(-105.442 -487.826)" fill="none" stroke="#fff" stroke-miterlimit="10" stroke-width="4"/>
      <path id="パス_899" data-name="パス 899" d="M118.689,519.33c2.786.279,4.926.628,7.843-.069,1.963-.469,7.406,6.394,9.2,5.848,1.918-.585-.934-6.96.606-8.055A14.132,14.132,0,0,0,142.6,505.6a12.04,12.04,0,0,0-3.366-8.985" transform="translate(-93.6 -480.139)" fill="none" stroke="#fff" stroke-linecap="round" stroke-miterlimit="10" stroke-width="4"/>
    </g>
    <g id="グループ_1718" data-name="グループ 1718" transform="translate(115.749 503.379)">
      <circle id="楕円形_13" data-name="楕円形 13" cx="1.875" cy="1.875" r="1.875" fill="#fff"/>
      <circle id="楕円形_14" data-name="楕円形 14" cx="1.875" cy="1.875" r="1.875" transform="translate(7.149)" fill="#fff"/>
      <circle id="楕円形_15" data-name="楕円形 15" cx="1.875" cy="1.875" r="1.875" transform="translate(14.298)" fill="#fff"/>
    </g>
  </g>
</svg>
