<svg xmlns="http://www.w3.org/2000/svg" xmlns:xlink="http://www.w3.org/1999/xlink" width="47" height="47" viewBox="0 0 47 47">
  <defs>
    <clipPath id="clip-path">
      <rect id="長方形_199" data-name="長方形 199" width="47" height="47" fill="none"/>
    </clipPath>
  </defs>
  <g id="グループ_1722" data-name="グループ 1722" clip-path="url(#clip-path)">
    <path id="パス_900" data-name="パス 900" d="M195.15,567.356a6.22,6.22,0,0,0-4.462-5.972v-4.962a1.761,1.761,0,1,0-3.522,0v4.962a6.221,6.221,0,0,0,.024,11.941l.071,9.638a6.241,6.241,0,0,0-.094,11.992V599.8a1.761,1.761,0,1,0,3.522,0v-4.841a6.231,6.231,0,0,0,.094-11.921l-.071-9.709a6.248,6.248,0,0,0,4.438-5.969Zm-8.923,0a2.7,2.7,0,1,1,2.7,2.7,2.718,2.718,0,0,1-2.7-2.7Zm5.4,21.627a2.7,2.7,0,1,1-2.7-2.7,2.718,2.718,0,0,1,2.7,2.7Zm33.461-29.855H202.311a4.573,4.573,0,0,0-4.579,4.582V571a4.573,4.573,0,0,0,4.579,4.582h22.778A4.573,4.573,0,0,0,229.668,571V563.71a4.573,4.573,0,0,0-4.579-4.582ZM226.147,571a1.053,1.053,0,0,1-1.058,1.058H202.311A1.053,1.053,0,0,1,201.253,571V563.71a1.053,1.053,0,0,1,1.058-1.057h22.778a1.053,1.053,0,0,1,1.058,1.057Zm-1.058,9.756H202.311a4.573,4.573,0,0,0-4.579,4.586v7.285a4.573,4.573,0,0,0,4.579,4.586h22.778a4.573,4.573,0,0,0,4.579-4.586V585.34a4.573,4.573,0,0,0-4.579-4.586Zm1.058,11.871a1.054,1.054,0,0,1-1.058,1.061H202.311a1.054,1.054,0,0,1-1.058-1.061V585.34a1.053,1.053,0,0,1,1.058-1.058h22.778a1.053,1.053,0,0,1,1.058,1.058Zm0,0" transform="translate(-182.711 -554.615)" fill="#fff"/>
  </g>
</svg>
