<svg xmlns="http://www.w3.org/2000/svg" width="67.8" height="48.8" viewBox="0 0 67.8 48.8">
  <g id="グループ_1729" data-name="グループ 1729" transform="translate(-431.57 -553.781)">
    <rect id="長方形_202" data-name="長方形 202" width="64" height="45" rx="4" transform="translate(433.47 555.681)" fill="none" stroke="#fff" stroke-miterlimit="10" stroke-width="3.8"/>
    <g id="グループ_1727" data-name="グループ 1727" transform="translate(440.693 565.998)">
      <circle id="楕円形_16" data-name="楕円形 16" cx="5.678" cy="5.678" r="5.678" transform="translate(5.678 -1)" fill="none" stroke="#fff" stroke-miterlimit="10" stroke-width="2.8"/>
      <path id="パス_901" data-name="パス 901" d="M457.486,565.568a9.553,9.553,0,0,0-6.1-4.5,1.961,1.961,0,0,0-1.445.191,7.022,7.022,0,0,1-7.036,0,1.967,1.967,0,0,0-1.445-.191,9.551,9.551,0,0,0-6.109,4.5,2.2,2.2,0,0,0,.409,2.689,15.738,15.738,0,0,0,21.322,0A2.2,2.2,0,0,0,457.486,565.568Z" transform="translate(-435.06 -546.628)" fill="none" stroke="#fff" stroke-miterlimit="10" stroke-width="2.8"/>
    </g>
    <g id="グループ_1728" data-name="グループ 1728" transform="translate(466.598 568.453)">
      <rect id="長方形_203" data-name="長方形 203" width="23.24" height="3.634" rx="1.817" fill="#fff"/>
      <rect id="長方形_204" data-name="長方形 204" width="23.24" height="3.634" rx="1.817" transform="translate(0 8.123)" fill="#fff"/>
      <rect id="長方形_205" data-name="長方形 205" width="21.127" height="3.634" rx="1.817" transform="translate(2.113 16.246)" fill="#fff"/>
    </g>
  </g>
</svg>
