<svg xmlns="http://www.w3.org/2000/svg" width="133" height="45" viewBox="0 0 133 45">
  <g id="グループ_1878" data-name="グループ 1878" transform="translate(-175.344 -610.564)">
    <g id="グループ_1637" data-name="グループ 1637" transform="translate(175.344 614.971)">
      <path id="パス_880" data-name="パス 880" d="M223.43,629.114a14.376,14.376,0,0,0-2.842-7.662l-1.129,3.917a11.946,11.946,0,0,1,1.015,3.963v.006c0,.008-.015.013-.014.021.005.083,0,.167.009.253h.005a1.486,1.486,0,0,0,1.476,1.155,1.468,1.468,0,0,0,1.506-1.427A1.306,1.306,0,0,0,223.43,629.114Zm-31.279-1.707a12.471,12.471,0,0,0-4.849-.974c-6.6,0-11.957,4.982-11.957,11.237s5.354,11.238,11.957,11.238l3.415.041a1.45,1.45,0,1,0,0-2.9c-.024,0-.044-.006-.067-.006H187.3a8.43,8.43,0,1,1,0-16.826,9.347,9.347,0,0,1,3.632.754l3.495,1.483.672-3.558a12.608,12.608,0,0,1,12.6-9.966,13.33,13.33,0,0,1,3.156.377l3.929-1.612a16.421,16.421,0,0,0-7.1-1.6C199.919,615.1,193.468,620.411,192.15,627.408Z" transform="translate(-175.344 -615.1)" fill="#00226b"/>
      <g id="グループ_1635" data-name="グループ 1635" transform="translate(26.219 1.544)">
        <path id="パス_881" data-name="パス 881" d="M205.278,629.492l-.027-3.047,12.518-9.9-3.325,11.532-6.756-1.192Z" transform="translate(-199.189 -616.541)" fill="#00226b"/>
        <path id="パス_882" data-name="パス 882" d="M203.462,625.619l-3.869-1.454,18.066-7.412Z" transform="translate(-199.593 -616.526)" fill="#00226b"/>
      </g>
      <g id="グループ_1636" data-name="グループ 1636" transform="translate(17.963 19.129)">
        <path id="パス_883" data-name="パス 883" d="M209.321,646.457V634.281a1.319,1.319,0,0,1,.431-1,1.524,1.524,0,0,1,2.076,0,1.373,1.373,0,0,1,.446,1v12.176a1.366,1.366,0,0,1-.446,1,1.521,1.521,0,0,1-2.076,0A1.313,1.313,0,0,1,209.321,646.457Z" transform="translate(-190.445 -632.82)" fill="#00226b"/>
        <path id="パス_884" data-name="パス 884" d="M229.511,646.47,224.425,634.9a1.512,1.512,0,0,1-.141-.63,1.3,1.3,0,0,1,.114-.536,1.478,1.478,0,0,1,.311-.448,1.414,1.414,0,0,1,.466-.3,1.542,1.542,0,0,1,.58-.107,1.559,1.559,0,0,1,.82.234,1.484,1.484,0,0,1,.579.69l3.97,8.977,3.969-9a1.585,1.585,0,0,1,.487-.648,1.425,1.425,0,0,1,.9-.249,1.545,1.545,0,0,1,.58.107,1.426,1.426,0,0,1,.466.3,1.557,1.557,0,0,1,.317.448,1.243,1.243,0,0,1,.12.536,1.5,1.5,0,0,1-.154.63l-8.124,18.451a1.591,1.591,0,0,1-.566.677,1.529,1.529,0,0,1-1.886-.143,1.332,1.332,0,0,1-.418-1,1.416,1.416,0,0,1,.141-.616Z" transform="translate(-189.377 -632.82)" fill="#00226b"/>
        <path id="パス_885" data-name="パス 885" d="M223.364,634.1a1.482,1.482,0,0,0-1.678-1.214c-.013,0-.022.006-.035.007a.178.178,0,0,0-.041,0,8.555,8.555,0,0,0-1.531.361,8.344,8.344,0,0,0-2.327,1.243v-.27a1.316,1.316,0,0,0-.435-.993,1.469,1.469,0,0,0-1.049-.412,1.487,1.487,0,0,0-1.063.412,1.313,1.313,0,0,0-.435.993v12.326a1.316,1.316,0,0,0,.435.993,1.483,1.483,0,0,0,1.063.413,1.464,1.464,0,0,0,1.049-.413,1.319,1.319,0,0,0,.435-.993v-6.164a4.435,4.435,0,0,1,.392-1.854,4.787,4.787,0,0,1,1.07-1.506,5.137,5.137,0,0,1,1.592-1.015,4.617,4.617,0,0,1,1.256-.33v0a.063.063,0,0,0,.02,0A1.428,1.428,0,0,0,223.364,634.1Z" transform="translate(-190.056 -632.824)" fill="#00226b"/>
        <path id="パス_886" data-name="パス 886" d="M204.572,646.47V646.2a8.225,8.225,0,0,1-2.3,1.23,8.08,8.08,0,0,1-2.657.429,7.83,7.83,0,0,1-5.594-2.2,7.215,7.215,0,0,1,0-10.6,8.225,8.225,0,0,1,11.188,0,7.02,7.02,0,0,1,2.318,5.3v6.1a1.3,1.3,0,0,1-.431.982,1.54,1.54,0,0,1-2.091,0A1.3,1.3,0,0,1,204.572,646.47Zm-4.959-10.8a5.063,5.063,0,0,0-3.517,1.384,4.8,4.8,0,0,0-1.052,1.492,4.452,4.452,0,0,0,0,3.639,4.789,4.789,0,0,0,1.052,1.493,5.12,5.12,0,0,0,7.029-.008,4.811,4.811,0,0,0,1.06-1.491,4.435,4.435,0,0,0,0-3.628,4.82,4.82,0,0,0-1.06-1.49,5.06,5.06,0,0,0-3.512-1.392Z" transform="translate(-191.702 -632.82)" fill="#00226b"/>
      </g>
    </g>
    <text id="Alumni" transform="translate(249.344 645.292)" fill="#00226b" font-size="18" font-family="Seravek-Medium, Seravek" font-weight="500"><tspan x="0" y="0">Alumni</tspan></text>
    <circle id="楕円形_10" data-name="楕円形 10" cx="8.834" cy="8.834" r="8.834" transform="translate(239.309 610.564)" fill="#00226b"/>
    <path id="パス_887" data-name="パス 887" d="M240.021,622.926l1.178,8.245,3.534-8.834Z" transform="translate(4.449 0.769)" fill="#00226b"/>
    <text id="for" transform="translate(242.554 621.043)" fill="#fff" font-size="8" font-family="Seravek-Medium, Seravek" font-weight="500"><tspan x="0" y="0">for</tspan></text>
  </g>
</svg>
